<?xml version="1.0" standalone="no"?>
<!DOCTYPE svg PUBLIC "-//W3C//DTD SVG 20010904//EN"
 "http://www.w3.org/TR/2001/REC-SVG-20010904/DTD/svg10.dtd">
<svg version="1.0" xmlns="http://www.w3.org/2000/svg"
 width="512.000000pt" height="512.000000pt" viewBox="0 0 512.000000 512.000000"
 preserveAspectRatio="xMidYMid meet">

<g transform="translate(0.000000,512.000000) scale(0.100000,-0.100000)"
fill="#000000" stroke="none">
<path d="M2983 5110 c-12 -5 -446 -327 -965 -717 l-943 -708 -450 -5 -450 -5
-48 -28 c-54 -32 -102 -92 -117 -148 -7 -25 -9 -358 -8 -961 l3 -923 22 -40
c25 -47 64 -85 113 -111 32 -18 71 -19 485 -24 l450 -5 944 -708 c519 -390
957 -714 973 -719 69 -24 165 20 194 88 12 29 14 401 12 2476 l-3 2443 -23 33
c-42 58 -128 87 -189 62z m-103 -2550 l0 -2080 -800 600 -800 600 0 880 0 880
798 599 c438 330 798 600 800 600 1 1 2 -935 2 -2079z m-1920 0 l0 -800 -320
0 -320 0 0 800 0 800 320 0 320 0 0 -800z"/>
<path d="M3774 3971 c-112 -51 -122 -230 -16 -285 15 -8 66 -21 113 -30 233
-44 437 -152 607 -323 141 -142 235 -307 290 -512 22 -85 25 -116 25 -261 0
-145 -3 -176 -25 -261 -36 -132 -78 -229 -146 -334 -171 -265 -430 -436 -759
-503 -102 -21 -135 -38 -157 -80 -50 -98 -8 -214 89 -241 77 -21 351 51 525
139 330 166 597 468 719 813 57 162 75 272 75 467 0 194 -13 282 -65 443 -161
494 -614 883 -1133 972 -107 18 -92 18 -142 -4z"/>
<path d="M3773 3221 c-66 -31 -104 -109 -88 -180 11 -50 52 -89 133 -128 91
-43 157 -106 198 -188 26 -55 29 -69 29 -165 0 -95 -3 -110 -28 -163 -37 -75
-111 -148 -184 -182 -32 -15 -69 -33 -83 -40 -66 -35 -88 -122 -50 -199 49
-103 130 -118 270 -49 254 124 400 356 400 637 0 120 -16 191 -69 301 -68 144
-186 260 -333 330 -96 45 -141 51 -195 26z"/>
</g>
</svg>
